<?xml version="1.0" encoding="UTF-8" standalone="no"?>
<!-- Created with Inkscape (http://www.inkscape.org/) -->
<svg xmlns:rdf="http://www.w3.org/1999/02/22-rdf-syntax-ns#" xmlns="http://www.w3.org/2000/svg" xmlns:cc="http://web.resource.org/cc/" xmlns:dc="http://purl.org/dc/elements/1.1/" xmlns:svg="http://www.w3.org/2000/svg" xmlns:inkscape="http://www.inkscape.org/namespaces/inkscape" xmlns:sodipodi="http://sodipodi.sourceforge.net/DTD/sodipodi-0.dtd" xmlns:ns1="http://sozi.baierouge.fr" xmlns:xlink="http://www.w3.org/1999/xlink" id="svg2" version="1.0" viewBox="0 0 281.875 478.268" inkscape:version="0.91 r13725">
  <g id="g3524">
    <path id="path9" style="stroke:#000000;stroke-width:.036;stroke-miterlimit:10;fill-rule:evenodd" d="m62.69 462.81c7.596-1.48 18.36-1.91 32.58-1.44 14.22 0.43 52.52 2.09 52.27 4.28-0.65 2.13-18.47 4.93-54.826 8.57 23.616-3.13 32.546-5.51 27.326-7.56-5.47-2.05-24.914-3.49-59.294-4.46l1.944 0.61z"/>
    <path id="path11" style="stroke:#000000;stroke-width:.036;stroke-miterlimit:10;fill-rule:evenodd" d="m168.53 469.72c5.72-1.08 13.75-1.44 24.37-1.08s39.24 1.48 39.06 3.2c-0.47 1.62-13.86 3.71-41 6.41 17.71-2.34 24.3-4.18 20.45-5.65-4.11-1.51-18.65-2.63-44.32-3.35l1.44 0.47z"/>
    <path id="path13" style="stroke:#000000;stroke-width:.036;stroke-miterlimit:10;fill-rule:evenodd" d="m77.342 438.72h-22.608c-6.984-10.8-11.016-19.11-11.952-25.23-1.008-6.16 0.936-9.83 5.976-11.31-12.06 1.48-19.908 0.9-23.94-2.01-4.032-2.99-4.032-7.89 0-15.27-11.196-1.54-16.776-4.43-17.28-8.64-0.432-4.32 4.392-9.72 14.616-16.63-6.156 2.95-10.044 2.95-11.952 0-1.944-3.02-1.62-8.97 0.684-17.97-8.64-0.86-12.24-2.48-10.656-5.29 1.548-2.77 8.1-6.58 19.944-11.3-6.732-6.12-8.82-10.33-6.66-12.64 2.268-2.3 8.784-2.84 19.944-1.33-7.776-9.29-11.268-16.41-10.62-21.92 0.684-5.58 10.368-12.1 14.616-10.66 4.104 1.44 7.38 7.78 9.972 19.3 4.428-11.74 7.92-18.08 10.62-19.3 2.664-1.15 4.392 2.67 5.328 11.99 12.852-1.69 20.556-1.08 23.256 1.98 2.628 3.09-5.688 12.02-7.308 15.95-1.656 3.7-2.592 5.97-2.664 6.66 5.652-2.2 9.648-2.52 11.988-0.69 2.268 1.8 3.024 5.47 1.98 11.31 9.036 9.18 12.884 16.27 11.984 21.27-1.04 4.97-6.98 7.85-17.96 8.64 14.148 7.45 21.06 12.67 21.28 15.95 0 3.2-6.7 4.32-20.632 3.35 9.36 7.34 13.428 12.78 12.636 16.6-0.972 3.74-6.804 5.68-17.928 5.97 2.88 8.14 4.212 15.08 3.996 21.28-0.288 6.12-4.284 11.91-5.328 15.3-1.152 3.31-1.548 4.86-1.332 4.64z"/>
    <path id="path15" style="fill-rule:evenodd;stroke:#000000;stroke-miterlimit:10;stroke-width:.036;fill:#ffffff" d="m47.426 396.86c-8.532 1.76-13.896 1.14-15.948-1.98-2.16-3.21-1.008-8.57 3.312-16.64-12.42 0.22-18.432-1.11-18.612-3.99-0.036-2.99 5.76-7.27 17.964-13.29l-2.016-11.3c-11.664 5.18-18.036 6.73-19.26 4.64-1.26-2.23 2.772-7.81 11.952-17.28-9.792 1.55-14.004 1.34-12.636-0.64 1.404-2.06 8.1-5.73 20.628-11.31-9.396-4.25-13.068-6.91-11.304-7.99 1.836-1.08 8.964-0.68 21.924 1.33-8.244-18.79-11.736-28.65-10.62-30.56 1.152-1.73 6.732 4.79 17.28 19.94 3.024-12.17 5.328-18.72 7.308-19.94 1.836-1.15 3.168 2.88 3.996 12.63 9.18-5.18 13.824-5.94 14.616-2.66 0.612 3.42-2.88 10.73-10.62 22.61 11.088-1.15 17.46-0.72 19.26 1.29 1.728 2.02-1.152 5.48-8.64 10.66 7.632 0.4 13.176 1.55 16.632 4 3.456 2.37 6.948 6.62 3.96 9.97-3.132 3.17-10.656 6.26-22.572 9.29 11.232 5.86 16.668 10.08 16.596 12.63-0.216 2.59-5.832 3.39-17.28 2.67 8.712 7.63 12.528 13.78 11.304 18.61-1.26 4.75-7.416 8.02-18.612 9.97 7.632 5.54 11.124 10.15 10.62 13.97-0.576 3.78-11.7 9.9-13.932 8.64-2.34-1.37-2.34-6.91 0-16.63-5.328 8.74-8.604 12.24-9.972 10.62-1.404-1.77-0.648-8.5 1.98-20.6-2.412 0.44-4.86 0.87-7.308 1.34z"/>
    <path id="path17" style="stroke:#000000;stroke-width:.036;stroke-miterlimit:10;fill-rule:evenodd" d="m24.134 440.2c7.596-1.48 18.36-1.91 32.58-1.44 14.22 0.43 52.526 2.09 52.276 4.28-0.62 2.13-18.58 4.94-54.868 8.57 23.688-3.02 32.58-5.58 27.36-7.52-5.472-2.02-24.912-3.57-59.292-4.5l1.944 0.61z"/>
    <path id="path19" style="stroke:#000000;stroke-width:.036;stroke-miterlimit:10;fill-rule:evenodd" d="m47.426 349.66c1.188 3.74 2.736 5.29 4.644 4.64 1.944-0.68 4.032-3.56 6.66-8.64 7.992 1.37 12.6 0.62 13.968-1.98 1.26-2.77-0.612-7.23-6.012-13.97 1.764 5.37 1.764 8.82 0 10.66-1.836 1.76-5.328 1.76-10.62 0-2.88 3.1-5.76 6.19-8.64 9.29z"/>
    <path id="path21" style="stroke:#000000;stroke-width:.036;stroke-miterlimit:10;fill-rule:evenodd" d="m42.098 366.94c2.304 10.44 4.968 15.62 7.992 15.95 2.988 0.18 6.264-4.65 9.972-14.62-3.708 3.71-6.984 5.58-9.972 5.33-3.024-0.29-5.688-2.41-7.992-6.66z"/>
    <path id="path23" style="stroke:#000000;stroke-width:.036;stroke-miterlimit:10;fill-rule:evenodd" d="m42.782 327.73c-4.14 6.74-7.2 10.55-9.324 11.31-2.088 0.79-3.24-1.48-3.312-6.66 0.54 1.22 1.872 1.4 3.996 0.68 2.16-0.83 4.86-2.55 8.64-5.33z"/>
    <path id="path25" style="stroke:#000000;stroke-width:.036;stroke-miterlimit:10;fill-rule:evenodd" d="m149.88 384.8c-1.76 0.46-3.71 1.8-5.54 3.85-1.87 2.01-3.93 4.89-5.87 8.49v8.32c-0.47-2.99-1.91-5.4-4.46-7.24-2.7-1.9-6.63-4.64-10.8-4.03-4.22 0.58-12.14 1.8-13.9 7.27-1.87 5.51 1.33 18.33 3.24 24.99 1.94 6.44 4.9 9.72 8.03 13.57 2.99 3.74 7.05 5.58 9.86 8.82 2.63 3.16 2.85 8.46 6.34 10.19 3.53 1.54 10.58 1.29 14.22-0.47 3.42-1.84 5.47-6.48 6.44-10.19 0.83-3.78 0.58-7.67-1.04-12.06 0.86-1.66 1.36-3.71 1.51-6.01 0.07-2.42 0.61-5.37-0.9-8.18-1.55-2.88-4.43-5.76-8.5-8.78 0.4-1.76 0.65-3.42 0.62-5.11-0.08-1.66-0.44-3.35-0.94-4.93 0.25-2.24 1.58-4.58 3.85-7.42s5.47-5.98 9.76-9.4c-3.96-0.53-7.92-1.11-11.92-1.68z"/>
    <path id="path27" style="fill-rule:evenodd;stroke:#000000;stroke-width:.036;stroke-miterlimit:10;fill:#ffffff" d="m140.63 427.06c0.07-1.23 0.07-3.02 0-5.4-0.22-2.45-0.65-6.62-0.76-8.93-0.14-2.27-0.14-3.6 0-4.97 0.08-1.51-0.61-3.49 0.47-3.99 1.01-0.69 4.11-0.72 5.4 0.47 0.97 1.15 1.01 3.74 1.37 6.94 0.36 3.14 0.97 9.18 1.26 11.88 0.29 2.63 0.43 3.82 0.43 3.71-2.55 1.33-4.5 2.05-5.83 2.16-1.33 0-2.16-0.57-2.34-1.87z"/>
    <path id="path29" style="fill-rule:evenodd;stroke:#000000;stroke-miterlimit:10;stroke-width:.036;fill:#ffffff" d="m137.25 404.38c-3.39-3.89-6.63-6.41-9.72-7.56-3.28-1.22-6.41-0.33-9.11 0.61-2.67 0.83-5.94 0.43-6.63 4.64-0.72 4.18 0.33 13.83 2.16 20.06 1.73 6.01 5.01 12.38 8.03 16.2 2.92 3.71 5.87 5.72 9.25 6.19 0.15 1.26 0.76 2.77 1.84 4.93 0.94 2.05 1.73 6.52 4.46 7.56 2.74 0.87 9.26-0.5 12.21-2.02 2.77-1.58 4.25-4.46 5.11-7.23 0.83-2.95 0.83-6.12 0-9.9-2.09 4.03-4.35 6.05-6.8 6.34-2.6 0.18-6.48-1.52-8.18-5.08-1.76-3.71-2.48-9.04-2.16-16.52l0.29-3.39c-2.09 3.17-3.78 5.22-5.22 6.16-1.47 0.86-3.31 1.26-3.42-0.76-0.07-2.19 0.76-6.01 2.77-11.88-2.52 3.82-4.46 6.05-5.83 7.09-1.51 0.87-2.48 0.22-2.48-1.4 0.03-1.76 1.04-6.26 2.63-8.64 1.51-2.48 4.78-5.08 6.33-5.4 1.44-0.29 2.16 0.9 2.31 3.71h2.44c-0.07-1.23-0.18-2.45-0.28-3.71z"/>
    <path id="path31" style="fill-rule:evenodd;stroke:#000000;stroke-width:.036;stroke-miterlimit:10;fill:#ffffff" d="m131.52 407.01c-0.75 0.32-3.35 3.85-4.32 5.72-1.08 1.84-2.19 5.29-1.55 5.08 0.62-0.43 4.18-5.44 5.26-7.24 0.94-1.91 1.19-3.92 0.61-3.56z"/>
    <path id="path33" style="fill-rule:evenodd;stroke:#000000;stroke-width:.036;stroke-miterlimit:10;fill:#ffffff" d="m136.17 411.47c-1.95 3.1-3.28 5.73-3.86 7.74-0.68 2.02-0.68 4.75 0.15 4.32 0.75-0.61 2.3-2.95 4.64-7.41l0.29-5.73c-0.4 0.36-0.79 0.72-1.22 1.08z"/>
    <path id="path35" style="fill-rule:evenodd;stroke:#000000;stroke-miterlimit:10;stroke-width:.036;fill:#ffffff" d="m140.02 428.93c1.08 1.84 2.52 2.67 4.32 2.63 1.83-0.15 5.15-1.37 6.19-3.1 0.9-1.8 0.68-4.17-0.65-7.27l-0.9-5.07c1.91 0.21 3.32 1.65 4.61 4.32 1.19 2.66 3.31 7.95 2.63 11.41-0.94 3.31-4.97 6.98-7.24 8.49-2.3 1.37-4.64 1.05-6.19 0-1.69-1.22-2.91-4.93-3.38-6.8-0.51-1.98-0.26-3.42 0.61-4.61z"/>
    <path id="path37" style="fill-rule:evenodd;stroke:#000000;stroke-miterlimit:10;stroke-width:.036;fill:#ffffff" d="m141.1 396.21c-1.15 2.3-0.94 5.07-0.94 5.07 0.69-0.5 1.62-0.75 2.81-0.61 1.08 0.07 2.41 0.54 4 1.26 2.88-4.57 5.4-7.85 7.7-10.37 2.27-2.48 4.18-3.92 5.87-4.32l-11.41-1.22-5.26 5.87s-1.62 2.01-2.77 4.32z"/>
    <path id="path39" style="stroke:#000000;stroke-width:.036;stroke-miterlimit:10;fill-rule:evenodd" d="m211.8 385.41c0.36 2.48 0.25 5.25-0.32 8.31-0.61 3.1-1.69 6.3-3.24 10.05-0.54-1.12-1.26-0.87-2.16 0.75-0.97 1.62-2.05 4.47-3.38 8.82-2.74-0.64-4.9-0.29-6.34 1.23-1.55 1.51-2.38 3.89-2.63 7.56-2.52 2.7-4.32 5.22-5.54 7.7-1.23 2.48-1.84 4.68-1.84 6.98-2.99 3.17-4.28 6.13-4.03 9.4 0.18 3.1 2.59 7.7 5.44 9.54 2.84 1.69 6.12-0.07 11.48 1.22 5.22 1.3 14.83 6.16 19.94 6.52 5.04 0.18 8.03-2.02 10.37-4.93 2.23-3.06 3.49-9.22 3.24-12.35-0.43-2.99-3.53-4.57-5.11-5.87-1.69-1.44-2.31-0.97-4.32-2.63-2.05-1.73-4.57-4.24-7.7-7.56 0.46-3.2 0.57-5.83 0.46-7.88-0.1-2.16-0.57-3.56-1.26-4.61 1.3-2.45 2.13-4.61 2.63-6.48 0.47-1.98 0.47-3.53 0.15-4.93 1.65-6.55 2.7-11.27 3.27-14.69 0.51-3.38 0.4-5.18-0.18-5.4-2.95-0.25-5.94-0.5-8.93-0.75z"/>
    <path id="path41" style="fill-rule:evenodd;stroke:#000000;stroke-miterlimit:10;stroke-width:.036;fill:#ffffff" d="m213.35 429.69c1.04-3.93 1.04-6.88 0-9.25-1.04-2.38-4.03-3.93-6.34-4.79-2.52-1.05-6.26-1.77-8.17-0.76-1.87 1.12-2.95 3.35-3.09 7.09 4.5 0.83 8.06 1.91 11.08 3.24 2.96 1.3 5.08 2.74 6.52 4.47z"/>
    <path id="path43" style="fill-rule:evenodd;stroke:#000000;stroke-width:.036;stroke-miterlimit:10;fill:#ffffff" d="m204.53 413.34c0.5-2.16 0.97-3.78 1.55-5.25 0.5-1.48 0.61-2.88 1.69-3.39 0.97-0.57 2.73-0.57 4.32 0 1.4 0.47 4.25 1.37 4.64 3.39 0.33 1.98-0.5 4.86-2.48 8.64-0.86-0.22-2.05-0.72-3.71-1.23-1.69-0.57-3.6-1.29-6.01-2.16z"/>
    <path id="path45" style="fill-rule:evenodd;stroke:#000000;stroke-miterlimit:10;stroke-width:.036;fill:#ffffff" d="m210.72 402.69c0.65-0.29 1.33-0.15 2.45 0.29 1.04 0.39 2.23 1.22 3.71 2.34 1.44-4.11 2.52-7.57 3.09-10.66 0.51-3.13 0.65-5.65 0.29-7.7l-7.09-0.33c-0.11 4.07-0.36 7.27-0.76 10.05-0.46 2.62-0.93 4.68-1.69 6.01z"/>
    <path id="path47" style="fill-rule:evenodd;stroke:#000000;stroke-miterlimit:10;stroke-width:.036;fill:#ffffff" d="m211.8 430.91c-3.17-2.3-6.01-4-8.96-4.93-2.92-1.01-5.8-1.26-8.5-0.9-1.4 1.48-2.59 2.99-3.71 4.93-1.15 1.87-1.97 3.93-2.77 6.3 4.03 0.86 7.24 2.13 9.9 3.93 2.49 1.69 4.21 4.82 5.73 6.62 1.55 1.76 2.73 3.02 3.56 3.92 0.97 2.6 2.66 4.61 4.93 6.05 2.23 1.41 6.34 2.52 8.72 2.52 2.34-0.21 3.6-1.4 5.29-3.13 1.51-1.8 4.43-4.86 4.32-7.24-0.11-2.37-1.8-4.78-4.94-7.09-0.36 1.01-0.82 1.91-1.54 2.31-0.73 0.36-2.34 0.79-2.78 0.32-0.57-0.47-0.68-1.55-0.32-3.1-1.69 1.44-2.88 2.06-3.71 1.84-0.79-0.25-1.29-1.8-1.36-3.24-0.19-1.55-0.19-3.46 0.14-5.87-1.33-1.08-2.67-2.16-4-3.24z"/>
    <path id="path49" style="fill-rule:evenodd;stroke:#000000;stroke-width:.036;stroke-miterlimit:10;fill:#ffffff" d="m217.63 435.23c-0.61 1.58-0.86 2.77-0.75 3.56 0 0.73 0.68 1.23 1.22 1.08 0.44-0.25 1.01-0.97 1.73-2.3-0.72-0.76-1.44-1.55-2.2-2.34z"/>
    <path id="path51" style="fill-rule:evenodd;stroke:#000000;stroke-width:.036;stroke-miterlimit:10;fill:#ffffff" d="m221.34 439.26c-0.07 1.66 0.04 2.6 0.33 3.1 0.21 0.43 1-0.18 1.4-0.47 0.32-0.36 0.57-0.83 0.76-1.55-0.83-0.36-1.66-0.72-2.49-1.08z"/>
    <path id="path53" style="fill-rule:evenodd;stroke:#000000;stroke-miterlimit:10;stroke-width:.036;fill:#ffffff" d="m194.2 443.3c0.61 0.25 1.15 0.64 1.62 1.18 0.43 0.47 0.68 1.16 0.9 1.91-1.44 1.08-2.63 1.66-3.28 1.73-0.72 0-1.19-0.79-1.01-1.55 0.15-0.83 0.69-1.87 1.77-3.27z"/>
    <path id="path55" style="fill-rule:evenodd;stroke:#000000;stroke-miterlimit:10;stroke-width:.036;fill:#ffffff" d="m192.51 441.78l-2.63-1.65c-0.43 1.62-0.61 2.88-0.4 3.78 0.15 0.82 0.72 1.76 1.3 1.44 0.5-0.47 1.08-1.48 1.73-3.57z"/>
    <path id="path57" style="fill-rule:evenodd;stroke:#000000;stroke-miterlimit:10;stroke-width:.036;fill:#ffffff" d="m186.75 441.6c-0.44 0.26-0.83 0.69-1.05 1.3-0.29 0.61-0.54 1.3-0.61 2.2 1.58 0.57 2.66 0.79 3.24 0.5 0.47-0.32 0.29-1.62 0.04-2.23-0.29-0.72-0.83-1.26-1.62-1.77z"/>
    <path id="path59" style="fill-rule:evenodd;stroke:#000000;stroke-miterlimit:10;stroke-width:.036;fill:#ffffff" d="m184.73 446.72c-0.29 0.5-0.43 0.97-0.29 1.54 0.07 0.51 0.29 1.08 0.79 1.73 0.76-0.32 1.33-0.65 1.73-1.11 0.4-0.47 0.87-1.41 0.58-1.7-0.47-0.39-1.26-0.5-2.81-0.46z"/>
    <path id="path61" style="fill-rule:evenodd;stroke:#000000;stroke-miterlimit:10;stroke-width:.036;fill:#ffffff" d="m186.49 450.89c0.07 0.07 0.07 0.36 0.4 0.72 0.22 0.36 0.58 0.87 1.08 1.51 0.47-0.75 0.83-1.58 0.94-2.08 0.07-0.72 0.14-1.44-0.22-1.48-0.36 0-1.22 0.4-2.2 1.33z"/>
    <path id="path63" style="fill-rule:evenodd;stroke:#000000;stroke-miterlimit:10;stroke-width:.036;fill:#ffffff" d="m189.99 453.45l2.23 0.46c0.14-1.11 0.28-1.94 0.03-2.48-0.21-0.65-0.9-1.08-1.22-0.76-0.36 0.37-0.76 1.19-1.04 2.78z"/>
    <path id="path65" style="fill-rule:evenodd;stroke:#000000;stroke-miterlimit:10;stroke-width:.036;fill:#ffffff" d="m191.1 447.47c-0.21-0.43-0.9-0.61-1.22-0.54-0.43 0-1.12 0.04-0.94 0.51 0.15 0.43 1.48 1.69 1.91 1.83 0.32-0.07 0.36-1.37 0.25-1.8z"/>
    <path id="path67" style="stroke:#000000;stroke-width:.036;stroke-miterlimit:10;fill-rule:evenodd" d="m102.9 309.34c-3.346-0.07-6.478-5.98-9.79-18-3.348-12.13-8.1-38.09-9.792-53.86-1.836-15.84-2.988-31.89-0.396-40.53 2.52-8.61 5.328-9.07 16.056-11.13 10.832-2.23 31.432-1.69 48.162-2.12 16.57-0.5 33.16-1.08 50.91-0.61 17.75 0.32 42.77 2.01 54.65 3.13 11.52 0.97 11.52 0.14 14.86 3.35 3.42 3.13 5.01 8.35 5.3 15.66 2.26-0.61 4.21-0.4 5.68 0.79 1.48 1.19 3.1 4.18 3.32 6.05 0 1.62-1.08 4.53-2.56 4.32-1.58-0.29-3.49-2.09-6.26-5.69 0.07 11.59-0.04 22.97-0.18 34.67-0.26 11.77 0.25 24.55-0.98 34.85-1.4 10.08-3.56 18.32-6.87 25.27 3.56 2.48 6.08 4.75 7.85 7.23 1.62 2.38 1.8 4.36 2.34 7.06 0.5 2.63 0.72 5.4 0.79 8.6 1.55 0.8 2.27 2.16 2.16 4.11-0.18 1.8-1.62 5.83-2.95 7.23-1.41 1.41-3.17 1.69-5.3 1.01 0.69 4.39 0.36 8.5-0.97 12.31-1.4 3.78-4.82 8.18-7.05 10.41-2.34 2.16-4.36 2.84-6.45 2.34-0.29 7.16-1.47 12.31-3.71 15.84-2.3 3.35-1.26 3.63-9.79 4.89-8.67 1.3-27.43 2.42-41.54 2.78-14.15 0.18-32.08-0.22-42.66-1.19-10.62-1.01-15.7-0.83-20.77-4.72-5.19-4.03-8.32-10.23-9.8-18.97-2.88 1.73-6.01 2.52-9.39 2.52-3.46-0.15-7.81-0.62-10.98-2.92-3.24-2.38-5.87-5.94-8.03-10.98-2.808-0.75-4.896-2.84-6.264-6.26-1.476-3.6-2.304-9.29-1.944-14.3 0.396-5.03 2.16-11.37 4.32-15.26 2.054-3.89 4.682-6.51 8.028-7.88z"/>
    <path id="path69" style="fill-rule:evenodd;stroke:#000000;stroke-miterlimit:10;stroke-width:.036;fill:#ffffff" d="m103.87 313.12c-2.55 2.16-4.64 5.04-6.26 8.78-1.764 3.78-3.528 9.07-3.744 13.54-0.36 4.32 0.432 10.11 2.376 12.53 1.98 2.23 6.728 1.87 9.398 1.55 2.52-0.44 5.18-1.66 6.05-3.53 0.72-1.87-1.08-3.96-1.37-7.63-0.36-3.89-1.19-10.7-0.4-14.87 0.87-4.21 2.49-7.56 5.29-10.19-3.78-0.04-7.56-0.11-11.34-0.18z"/>
    <path id="path71" style="stroke:#000000;stroke-width:.036;stroke-miterlimit:10;fill-rule:evenodd" d="m96.818 341.31c0 3.02 1.764 5.47 3.922 5.47 2.16 0 3.93-2.45 3.93-5.47 0-3.03-1.77-5.48-3.93-5.48-2.158 0-3.922 2.45-3.922 5.48z"/>
    <path id="path73" style="fill-rule:evenodd;stroke:#000000;stroke-miterlimit:10;stroke-width:.036;fill:#ffffff" d="m98.582 341.49c0 1.94 1.116 3.53 2.518 3.53 1.37 0 2.52-1.59 2.52-3.53 0-1.95-1.15-3.5-2.52-3.5-1.402 0-2.518 1.55-2.518 3.5z"/>
    <path id="path75" style="fill-rule:evenodd;stroke:#000000;stroke-miterlimit:10;stroke-width:.036;fill:#ffffff" d="m116.8 314.27c1.8 0 3.2-0.18 4.5-0.39 1.22-0.26 2.19-0.69 2.91-1.16 0 1.88 0.62 5.01 1.98 9.4 1.41 4.35 3.24 9.97 6.05 16.85-1.33 3.31-2.45 6.44-3.49 9.39-1.08 2.88-2.16 6.09-2.56 8.21-0.43 2.05-0.32 3.49 0.18 4.32-3.06 1.8-6.01 2.7-9 2.56-3.02-0.18-6.48-1.62-8.82-3.35-2.37-1.8-4.24-4.29-5.47-7.45 4.75 0.21 7.92-0.58 9.79-2.52 1.7-2.13 1.23-5.01 0.98-9.04-0.33-4.03-3.32-10.01-2.74-14.47 0.54-4.5 2.3-8.57 5.69-12.35z"/>
    <path id="path77" style="fill-rule:evenodd;stroke:#000000;stroke-miterlimit:10;stroke-width:.036;fill:#ffffff" d="m137.93 337.6c-1.76 2.12-3.24 4.18-4.28 6.44-1.12 2.2-3.64 5.08-2.16 6.84 1.33 1.62 0.18 2.16 10.58 3.14 10.44 0.86 36.22 2.05 51.66 2.15 15.34-0.03 30.49-0.35 39.78-1.94 9.15-1.65 12.85-4.07 14.87-7.63 1.83-3.67 0.75-8.21-3.53-13.9-3.31 0.18-11.16 0.44-24.08 0.76-13.07 0.32-39.6 0.94-53.07 1.01-13.46-0.04-22.39-0.33-27.21-1.01-0.83 1.37-1.7 2.74-2.56 4.14z"/>
    <path id="path79" style="fill-rule:evenodd;stroke:#000000;stroke-miterlimit:10;stroke-width:.036;fill:#ffffff" d="m131.09 355.02c-1.33 7.42-0.36 13.36 3.31 18.22 3.64 4.79 3.6 8.53 18.22 10.55 14.69 1.87 52.45 1.47 68.72 1.19 15.95-0.44 21.86 0.32 27.04-3.14 5-3.63 2.99-12.35 3.53-17.82 0.43-5.47 0.43-10.44-0.4-14.9-1.66 3.2-5.69 5.51-12.53 7.06-6.84 1.51-14.61 1.72-28.19 2.16-13.86 0.28-41.47-0.15-53.67-0.18-12.13-0.15-14.51 0.25-18.79-0.22-4.4-0.58-6.81-1.55-7.24-2.92z"/>
    <path id="path81" style="stroke:#000000;stroke-width:.036;stroke-miterlimit:10;fill-rule:evenodd" d="m144.19 370.86c4.9 0.76 11.41 1.48 19.98 2.16 8.5 0.72 18.33 1.87 30.75 1.95 12.45-0.04 26.49-0.87 43.09-2.34-0.07 2.08 0.61 3.13 1.76 3.13 1.15-0.11 4.03-1.26 5.29-3.31 1.08-2.16 2.2-8.29 1.55-9.22-0.79-0.94-4.46 2.52-5.86 3.71-1.48 1.11-2.34 2.05-2.74 2.95-5.4 1.3-12.74 2.01-22.32 2.16-9.72 0.07-23.07-0.76-35.06-1.37-12.06-0.68-24.12-1.37-36.61-2.34 0.03 0.83 0.1 1.66 0.17 2.52z"/>
    <path id="path83" style="fill-rule:evenodd;stroke:#000000;stroke-miterlimit:10;stroke-width:.036;fill:#ffffff" d="m240.53 371.26c0.4-1.3 1.94-4.61 2.56-4.68 0.5-0.14 0.68 3.35 0.39 4.5-0.43 1.08-2.27 2.23-2.73 2.34-0.58-0.11-0.65-0.97-0.22-2.16z"/>
    <path id="path85" style="fill-rule:evenodd;stroke:#000000;stroke-miterlimit:10;stroke-width:.036;fill:#ffffff" d="m256.23 360.31c2.62-0.1 4.82-1.58 6.44-4.14 1.58-2.7 2.84-7.2 3.35-11.55 0.36-4.61-0.04-10.41-0.61-14.87-0.61-4.46-1.26-8.71-2.92-11.34-1.8-2.63-4.82-4.14-7.27-4.54-2.45-0.57-4.97-0.07-7.42 1.37-0.46 0.94-0.79 2.77-0.97 5.51-0.21 2.73-0.29 6.12-0.21 10.58 1.87 2.99 3.45 5.83 4.89 8.39 1.48 2.49 2.56 3.39 3.53 6.88 0.75 3.42 1.15 7.99 1.19 13.71z"/>
    <path id="path87" style="fill-rule:evenodd;stroke:#000000;stroke-miterlimit:10;stroke-width:.036;fill:#ffffff" d="m267.96 334.47l1.95-0.79c-0.22-2.13 0.21-3.75 1-4.72 0.8-1.01 2.09-1.51 3.89-1.37 0.61-4.1 0.18-7.63-1.15-10.58-1.4-3.1-4.18-5.94-7.06-7.42-3.06-1.58-7.88-1.98-10.58-1.58-2.66 0.32-4.43 1.73-5.29 3.92 3.67-0.83 6.37-0.72 8.64 0.18 2.12 0.83 2.77 1.33 4.28 5.11 1.41 3.68 2.85 9.47 4.32 17.25z"/>
    <path id="path89" style="fill-rule:evenodd;stroke:#000000;stroke-miterlimit:10;stroke-width:.036;fill:#ffffff" d="m272.28 336.02c0.07-1.34 1.12-5.04 1.77-5.69 0.5-0.69 1.33 0.5 1.36 1.76-0.21 1.26-0.97 4.72-1.58 5.51-0.54 0.54-1.66-0.36-1.55-1.58z"/>
    <path id="path91" style="fill-rule:evenodd;stroke:#000000;stroke-miterlimit:10;stroke-width:.036;fill:#ffffff" d="m141.85 328.89c0.8-7.85 1.7-17.21 3.14-28.23 1.29-11.16 3.52-28.62 4.89-37.8 1.23-9.18 2.34-14.68 2.95-16.81 11.45 0.03 21.53 0.15 30.53 0.18 8.97-0.03 15.55 0.29 23.11 0 7.53-0.36 14.37-1.01 21.35-1.94 0.18 5.25 0.65 11.52 1.55 19.19 0.79 7.63 1.94 15.73 3.74 26.24 1.77 10.48 4.11 22.14 7.02 35.82-13.21 1.69-25.52 2.77-37.76 3.53-12.42 0.61-24.81 0.57-35.06 0.57-10.19-0.07-18.54-0.32-25.46-0.75z"/>
    <path id="path93" style="stroke:#000000;stroke-width:.036;stroke-miterlimit:10;fill-rule:evenodd" d="m165.94 311.82c-2.59-6.04-3.49-22.46-4.5-31.32-1.15-8.96-3.64-16.77-1.77-21.35 1.88-4.53 4.76-4.46 12.93-5.47 8.17-1.08 26.93-1.29 35.46-0.79 8.31 0.36 12.17-1.69 14.47 3.71 2.13 5.54-0.14 19.22-0.97 28.8-0.79 9.39-0.43 22.14-3.93 27.39-3.74 5.08-10.97 2.81-17.82 3.35-6.98 0.4-17.42 0.36-23.11-0.39-5.72-0.83-8.21 1.94-10.76-3.93z"/>
    <path id="path95" style="fill-rule:evenodd;stroke:#000000;stroke-miterlimit:10;stroke-width:.036;fill:#ffffff" d="m168.49 309.3c-2.66-5.32-3.27-18.28-4.32-26.24-1.18-8.03-4.1-16.34-2.34-20.77 1.77-4.32 4.83-4.57 12.93-5.47 8.17-1.08 27.75-1.3 35.42-0.8 7.49 0.4 8.03-1.47 9.4 3.71 1.15 5.19-0.61 18.87-1.55 27.43-0.86 8.5-1.08 18.76-3.71 23.3-2.77 4.32-7.02 2.59-12.74 3.13-5.98 0.57-16.09 0.57-21.75 0-5.58-0.79-8.71 0.79-11.34-4.29z"/>
    <path id="path97" style="stroke:#000000;stroke-width:.036;stroke-miterlimit:10;fill-rule:evenodd" d="m172.42 285.15l32.11-1.23c0.03 2.09 0.57 3.13 1.76 3.13 1.16-0.1 4.07-1.26 5.26-3.31 1.15-2.16 2.23-8.28 1.58-9.21-0.79-0.94-4.46 2.52-5.86 3.7-1.48 1.12-2.34 2.06-2.74 2.96-6.26 0.61-12.02 0.97-17.42 1.22-5.44 0.22-10.41 0.32-14.91 0.18 0.07 0.83 0.15 1.69 0.22 2.56z"/>
    <path id="path99" style="fill-rule:evenodd;stroke:#000000;stroke-miterlimit:10;stroke-width:.036;fill:#ffffff" d="m207.05 282.56c0.4-1.3 1.94-4.61 2.56-4.68 0.5-0.15 0.68 3.34 0.39 4.5-0.43 1.08-2.27 2.23-2.73 2.34-0.58-0.11-0.65-0.98-0.22-2.16z"/>
    <path id="path101" style="fill-rule:evenodd;stroke:#000000;stroke-miterlimit:10;stroke-width:.036;fill:#ffffff" d="m150.85 239.43c-4.42-4.83-7.7-10.98-9.97-18.61-2.34-7.74-3.53-16.67-3.71-27.22 13.61-3.02 26.14-4.9 38.16-5.47 11.88-0.58 21.96 0.29 33.3 1.76 11.34 1.3 22.58 3.31 34.28 6.05 0.79 5.76 1 11.2 0.79 16.85-0.22 5.51-0.87 12.13-2.38 16.27-1.8 4.07-2.77 5.98-7.63 8.21-4.9 2.19-11.34 3.67-21.13 4.71-9.9 1.01-26.9 1.44-37.23 1.15-10.33-0.39-18.39-1.72-24.48-3.7z"/>
    <path id="path103" style="stroke:#000000;stroke-width:.036;stroke-miterlimit:10;fill-rule:evenodd" d="m164.57 233.6c0 3.02 2.48 5.5 5.58 5.5s5.58-2.48 5.58-5.5c0-3.03-2.48-5.48-5.58-5.48s-5.58 2.45-5.58 5.48z"/>
    <path id="path105" style="fill-rule:evenodd;stroke:#000000;stroke-miterlimit:10;stroke-width:.036;fill:#ffffff" d="m167.09 233.81c0 1.95 1.58 3.53 3.56 3.53s3.6-1.58 3.6-3.53c0-1.94-1.62-3.53-3.6-3.53s-3.56 1.59-3.56 3.53z"/>
    <path id="path107" style="stroke:#000000;stroke-width:.036;stroke-miterlimit:10;fill-rule:evenodd" d="m206.29 233.6c0 3.02 2.49 5.5 5.55 5.5 3.09 0 5.61-2.48 5.61-5.5 0-3.03-2.52-5.48-5.61-5.48-3.06 0-5.55 2.45-5.55 5.48z"/>
    <path id="path109" style="fill-rule:evenodd;stroke:#000000;stroke-miterlimit:10;stroke-width:.036;fill:#ffffff" d="m208.78 233.81c0 1.95 1.62 3.53 3.6 3.53s3.56-1.58 3.56-3.53c0-1.94-1.58-3.53-3.56-3.53s-3.6 1.59-3.6 3.53z"/>
    <path id="path111" style="stroke:#000000;stroke-width:.036;stroke-miterlimit:10;fill-rule:evenodd" d="m168.67 215.45l32.12-1.22c-0.08 2.09 0.61 3.13 1.76 3.13 1.15-0.07 4.03-1.33 5.29-3.35 1.15-2.16 2.23-8.31 1.59-9.18-0.9-0.83-4.4 2.45-5.91 3.71-1.47 1.12-2.34 2.05-2.73 2.95-6.37 0.61-11.95 0.97-17.43 1.23-5.47 0.21-10.29 0.32-14.86 0.18 0.03 0.82 0.1 1.69 0.17 2.55z"/>
    <path id="path113" style="fill-rule:evenodd;stroke:#000000;stroke-miterlimit:10;stroke-width:.036;fill:#ffffff" d="m203.34 212.86c0.4-1.26 1.95-4.68 2.56-4.72 0.5-0.14 0.68 3.35 0.39 4.5-0.57 1.16-2.19 2.27-2.77 2.38-0.5-0.11-0.61-0.97-0.18-2.16z"/>
    <path id="path115" style="fill-rule:evenodd;stroke:#000000;stroke-miterlimit:10;stroke-width:.036;fill:#ffffff" d="m243.48 319.92c-0.14-8.35-0.07-19.58-0.18-34.27-0.11-14.83-0.18-32.33-0.22-53.46-0.61 3.06-1.87 5.4-3.92 7.42-2.05 1.94-4.79 3.27-8.21 4.14 0.22 7.52 0.69 15.05 1.55 23.11 0.72 7.92 1.66 15.77 3.35 24.66 1.58 8.89 3.78 18.22 6.44 28.4h1.19z"/>
    <path id="path117" style="fill-rule:evenodd;stroke:#000000;stroke-miterlimit:10;stroke-width:.036;fill:#ffffff" d="m140.67 322.08c0.54-13.28 1.47-25.88 2.95-38.77 1.4-12.96 3.35-25.23 5.69-37.8-2.49-0.07-4.65-2.45-6.88-7.27-2.23-4.93-4.32-12.02-6.26-21.71 0 17.1 0.07 31.46 0.21 44.07 0 12.49-0.29 20.12 0.4 30.52 0.68 10.37 1.98 20.42 3.89 30.96z"/>
    <path id="path119" style="fill-rule:evenodd;stroke:#000000;stroke-miterlimit:10;stroke-width:.036;fill:#ffffff" d="m137.75 324.86c-3.06-12.21-4.82-25.31-5.69-40.15-0.83-14.93 0.36-32.61 0.79-48.16 0.4-15.59 0.87-30.06 1.55-44.25 10.26-2.84 19.73-4.61 29.38-5.69 9.61-1 26.53-0.36 27.43-0.57 0.5-0.54-12.28-1.62-23.33-1.59-11.09 0.18-25.05 0.83-42.48 2.34-1.11 2.92-1.58 9.65-1.55 20.2 0.04 10.66 1.01 28.33 1.95 42.88 0.93 14.5 2.19 31.32 3.35 43.05 0.93 11.52 1.98 20.41 2.73 25.85 0.69 5.36 0.72 5.19 1.77 6.27 0.97 0.93 2.34 1 4.1-0.18z"/>
    <path id="path121" style="fill-rule:evenodd;stroke:#000000;stroke-miterlimit:10;stroke-width:.036;fill:#ffffff" d="m198.84 185.25c9.58 0.07 18.29 0.39 26.82 0.97 8.43 0.47 16.13 1.19 23.51 2.16 0.4 2.81 0.61 9.76 0.79 21.13 0.07 11.41 0.58 31.21 0 46.62-0.61 15.3-1.91 29.95-3.74 44.64 0.03-12.42 0.03-24.87 0-38.19-0.07-13.29-0.04-29.52-0.18-40.94-0.11-11.52-0.51-20.52-0.79-27.57-7.67-2.52-15.12-4.39-22.9-5.91-7.81-1.47-15.52-2.44-23.51-2.91z"/>
    <path id="path123" style="fill-rule:evenodd;stroke:#000000;stroke-miterlimit:10;stroke-width:.036;fill:#ffffff" d="m250.54 302.93c2.63 1.4 5.18 1.33 7.81 0.18 2.59-1.37 5.8-0.72 7.67-7.63 1.69-7.09 2.09-20.34 2.73-33.48 0.51-13.18 1.34-33.37 0.98-44.46-0.44-11.09-1.55-17.32-3.35-21.74-1.84-4.43-5.19-4.5-7.42-4.68-2.3-0.29-5.11 2.55-6.08 3.13-1.05 0.5-1.05 0.5 0 0 0.79 8.03 1.19 17.67 1.19 29.37-0.11 11.63-0.76 26.97-1.37 40.32-0.65 13.36-1.37 26.03-2.16 38.99z"/>
    <path id="path125" style="fill-rule:evenodd;stroke:#000000;stroke-miterlimit:10;stroke-width:.036;fill:#ffffff" d="m274.8 206.78c0.83 0.28 3.67 3.31 4.5 4.5 0.54 1.08-0.03 2.16-0.75 1.98-0.83-0.4-3.1-2.42-3.75-3.53-0.68-1.15-0.83-3.24 0-2.95z"/>
    <path id="path127" style="stroke:#000000;stroke-width:.036;stroke-miterlimit:10;fill-rule:evenodd" d="m260.73 288.82l4.57-61.31c2.09 0.11 3.17-0.36 3.24-1.55-0.04-1.26-0.94-4.25-2.99-5.51-2.12-1.33-8.06-2.88-9.07-2.16-1.01 0.69 2.23 4.54 3.31 6.12 0.97 1.48 1.95 2.45 2.77 2.92 0.76 1.44 0.72 7.13 0.04 17.46-0.76 10.4-2.23 24.77-4.43 44.06 0.83 0.01 1.69 0.01 2.56-0.03z"/>
    <path id="path129" style="fill-rule:evenodd;stroke:#000000;stroke-miterlimit:10;stroke-width:.036;fill:#ffffff" d="m264.07 224.88c-1.18-0.54-4.53-2.41-4.5-2.84-0.03-0.54 3.32-0.58 4.5-0.11 1.12 0.47 2.02 2.27 2.16 2.88-0.14 0.43-1.04 0.51-2.16 0.07z"/>
    <path id="path131" style="fill-rule:evenodd;stroke:#000000;stroke-miterlimit:10;stroke-width:.036;fill:#ffffff" d="m126.37 308.01s-5.14 2.34-7.41 0.61c-2.31-1.8-4-0.65-5.69-12.74-1.73-12.28-3.2-42.88-4.5-59.73-1.33-16.81-2.95-32.22-3.35-40.35-0.39-8 0-6.09 1.01-7.64 0.97-1.54 2.59-1.4 4.9-1.54 2.3-0.18 7.3-1.55 8.78 0.57 1.48 2.16-0.29 4.36 0 12.13 0.32 7.85 0.86 19.16 1.76 34.28 0.9 15.19 2.7 43.48 3.53 55.8 0.83 12.2 0.97 18.61 0.97 18.61z"/>
    <path id="path133" style="stroke:#000000;stroke-width:.036;stroke-miterlimit:10;fill-rule:evenodd" d="m121.33 283.24l-3.99-61.38c2.05-0.18 3.09-0.79 2.99-1.98-0.29-1.19-1.8-4.1-3.71-5-1.98-0.94-6.55-1.48-7.45-0.65-0.87 0.83 1.29 3.85 2.3 5.33 0.86 1.29 1.91 2.08 3.13 2.52 0.9 1.29 1.73 6.91 2.49 17.28 0.64 10.36 1.22 24.84 1.72 44.24 0.83-0.11 1.66-0.22 2.52-0.36z"/>
    <path id="path135" style="fill-rule:evenodd;stroke:#000000;stroke-miterlimit:10;stroke-width:.036;fill:#ffffff" d="m115.79 219.45c-1.12-0.65-3.85-2.92-3.89-3.46-0.18-0.43 2.45-0.11 3.46 0.54 1.01 0.47 2.37 2.02 2.55 2.56-0.03 0.43-1.11 0.83-2.12 0.36z"/>
    <path id="path137" style="fill-rule:evenodd;stroke:#000000;stroke-miterlimit:10;stroke-width:.036;fill:#ffffff" d="m115.03 308.4s-4.32-7.16-5.68-14.86c-1.34-7.78-1.66-19.12-2.34-31.15-0.69-12.06-0.94-28.72-1.77-40.53-0.86-11.77-0.79-24.34-3.35-29.56-2.552-5.18-9.104-2.91-11.912-1.4-2.844 1.58-4.212 3.71-4.896 10.58-0.684 6.95-0.396 18.83 0.756 30.57 1.188 11.77 3.816 27.47 6.084 39.34 2.268 11.85 3.564 24.88 7.452 31.15 3.886 6.19 15.656 5.86 15.656 5.86z"/>
    <path id="path139" style="stroke:#000000;stroke-width:.036;stroke-miterlimit:10;fill-rule:evenodd" d="m104.45 298.61s-7.272-27.14-9.576-47.77c-2.34-20.63 0.324-34.7 0.324-34.7 1.656-3.28 1.836-5.15 0.828-6.02-1.152-0.75-5.004 0-7.236 1.16-2.376 0.97-5.976 4.1-6.084 5.11 0 0.83 4.176 0.75 5.868 0.75 1.584-0.03 2.88-0.21 3.888-0.68-1.584 8.86-1.44 19.76 0.036 33.41 1.476 13.6 4.5 29.27 9.072 47.66 0.94 0.36 1.91 0.72 2.88 1.08z"/>
    <path id="path141" style="fill-rule:evenodd;stroke:#000000;stroke-miterlimit:10;stroke-width:.036;fill:#ffffff" d="m92.966 214.37c-1.44 0.51-5.796 1.33-6.408 1.08-0.612-0.36 1.908-2.41 3.24-2.95 1.332-0.61 3.852-0.83 4.5-0.5 0.468 0.28-0.108 1.72-1.332 2.37z"/>
    <path id="path143" style="stroke:#000000;stroke-width:.036;stroke-miterlimit:10;fill-rule:evenodd" d="m252.88 121.42c-10.12-0.11-17.5-0.11-22.72-0.4-5.18-0.28-7.92-0.64-8.21-1.08-1.69 0.69-3.31 1.01-4.71 0.98-1.48-0.04-2.74-0.44-3.93-1.19-1.11 0.65-4.06 1.19-9 1.47-5.04 0.22-14.76 0.58-20.55 0.4-5.87-0.15-10.59-0.65-14.3-1.37-1.72 0.94-3.16 1.55-4.32 1.55-1.15-0.04-2.15-0.4-2.73-1.37l-11.34 0.79c-2.09-0.03-5.62 0.15-10.58 0.4-5.08 0.32-14.04 1.51-19.41 1.19-5.43-0.51-9.21-0.65-12.89-3.93-3.81-3.31-7.38-8.24-9.428-16.05-2.124-8.103-2.808-20.163-2.736-31.323 0.072-11.232 0.684-26.676 3.348-35.064 2.556-8.388 6.556-13.212 12.136-14.868 0.64-4.608 3.06-8.64 7.23-11.952 4.18-3.42 11.49-8.532 17.64-8.244 6.12 0.216 12.24 3.42 18.79 9.612 2.02-0.468 3.75-0.54 5.48-0.216 1.69 0.324 3.09 1.044 4.5 2.16 3.92-6.084 8.42-10.008 13.89-11.916 5.37-1.872 13.36-0.936 18.43 0.576 5.08 1.404 8.9 4.032 11.74 8.028 0.32-1.512 1.26-2.052 2.95-1.764 1.69 0.252 4 1.476 7.06 3.528 3.53-3.492 7.52-5.148 12.13-5.508 4.54-0.324 10.55-0.648 15.27 3.744 4.64 4.464 8.89 11.736 12.74 22.5 3.78 3.636 6.69 8.604 8.6 14.904 1.95 6.372 2.56 14.544 2.95 22.716 0.22 8.028 1.77 16.488-1.18 25.236-3.1 8.681-8.57 17.351-16.85 26.461z"/>
    <path id="path145" style="fill-rule:evenodd;stroke:#000000;stroke-miterlimit:10;stroke-width:.036;fill:#ffffff" d="m164.39 49.347c-0.18-5.796-0.97-11.268-2.38-16.848-1.4-5.616-3.34-12.168-6.26-16.452-3.13-4.392-7.45-7.704-12.13-9.396-4.79-1.728-11.05-3.096-15.88-0.792-4.86 2.268-9.07 6.984-12.92 14.292 1.76-0.936 3.56 0.54 5.69 4.716 2.08 4.104 5 11.736 6.66 19.98 1.44 8.244 2.16 18.18 2.55 28.98 0.4 10.728 0.33 26.933-0.21 34.853-0.58 7.7-1.62 11.55-3.14 11.55 2.42-0.68 5.44-1.04 9.22-1.37 3.71-0.36 8.93-0.21 13.32-0.39 4.39-0.22 8.5-0.43 12.71-0.79 1.83-4.36 2.95-9.08 3.74-14.3 0.61-5.433 0.76-11.157 0.58-17.025-0.22-5.904-0.54-11.7-1.37-17.82-2.12-0.432-3.74-1.26-4.72-2.34-1.08-1.152-1.4-2.7-1.36-4.5 0.07-1.872 0.5-4.212 1.58-6.876-2.74-1.008-4.9-2.016-6.48-3.312-1.73-1.368-3.42-2.628-3.13-4.32 0.36-1.836 2.45-6.444 4.89-6.048 2.34 0.324 5.26 3.06 9.04 8.208z"/>
    <path id="path147" style="fill-rule:evenodd;stroke:#000000;stroke-miterlimit:10;stroke-width:.036;fill:#ffffff" d="m167.31 14.679c-0.33-1.188 0.75-2.736 2.95-4.5 2.23-1.944 6.19-5.328 10.37-6.264 4.1-1.008 9.18-0.828 14.11 0.972 4.93 1.872 10.58 4.104 14.86 10.008 4.04 5.868 7.24 13.896 9.62 24.66-2.67-0.324-4.94-0.288-6.66 0.396-1.88 0.648-4.25 1.656-3.93 3.312 0.33 1.584 2.34 3.672 6.05 6.264-1.69 2.16-2.27 4.14-1.73 6.084 0.51 1.944 2.02 3.564 4.68 5.292-0.5 1.44-0.39 2.808 0.18 4.104 0.54 1.188 1.66 2.304 3.35 3.348 0.76 6.804 0.69 13.608 0.18 20.952-0.61 7.308-1.29 17.533-3.71 22.503-2.55 4.79-6.04 5.33-11.16 6.48-5.18 1.08-14.32 0.03-19.36 0.18-4.97 0.1-7.99 0.46-10.59 0.39-2.77-0.14-4.57-0.65-5.69-1.37 0.8-3.85 1.52-8.24 2.16-13.71 0.61-5.582 1.55-13.142 1.55-18.794-0.07-5.688-0.72-10.512-1.94-14.868 2.73 1.8 5 2.772 6.66 2.916 1.58 0.108 2.55-0.108 3.31-2.16 0.76-2.232 1.94-9.036 1.19-10.548-0.86-1.512-2.95-1.044-6.26 1.548 1.26-3.924 1.4-6.876 0.57-9-0.86-2.16-2.7-3.348-5.65-3.708 0-4.212-0.25-8.316-0.61-12.744-0.4-4.536-1.08-9.828-1.77-13.5-0.72-3.671-1.73-6.371-2.73-8.243z"/>
    <path id="path149" style="fill-rule:evenodd;stroke:#000000;stroke-miterlimit:10;stroke-width:.036;fill:#ffffff" d="m221.74 14.283c3.24-3.24 6.87-4.932 10.76-5.076 3.89-0.216 8.21-1.224 12.56 3.924 4.36 5.184 10.16 15.372 12.93 26.82 2.59 11.34 2.92 28.944 2.52 40.716-0.5 11.592-3.17 22.533-5.47 28.803-2.41 6.19-4.94 6.73-8.82 8.42-4 1.44-10.84 1.41-14.69 1.15-3.96-0.21-6.62-1.04-8.43-2.34 3.28-4.64 5.44-10.8 6.48-18.609 1.05-7.92 0.98-17.136-0.21-28.188 1.62 0.972 3.06 1.008 4.32 0.396 1.22-0.756 2.66-2.16 2.95-4.5 0.11-2.448-0.47-8.028-1.58-9.396-1.12-1.404-2.81-0.972-5.08 1.152 1.15-1.836 1.48-3.456 1.37-5.256-0.29-1.8-1.01-3.564-2.56-5.292 0.04-6.084-0.65-11.736-1.76-17.244-1.19-5.508-2.95-10.62-5.29-15.48z"/>
    <path id="path151" style="fill-rule:evenodd;stroke:#000000;stroke-miterlimit:10;stroke-width:.036;fill:#ffffff" d="m257.2 112.6c2.81-2.3 5.04-6.05 6.84-11.38 1.73-5.397 3.17-13.029 3.74-20.553 0.54-7.596 0.43-17.532-0.61-24.66-1.26-7.236-3.17-13.32-6.26-18.396 1.36 2.844 2.26 8.1 2.55 16.056 0.25 7.92 0.22 21.168-0.79 31.14-1.04 9.828-2.92 19.043-5.47 27.793z"/>
    <path id="path153" style="fill-rule:evenodd;stroke:#000000;stroke-miterlimit:10;stroke-width:.036;fill:#ffffff" d="m125.98 63.063c0.79-6.768 0.47-12.96-0.97-19.008-1.48-6.048-5.01-13.572-7.64-16.848-2.62-3.204-5-5.184-8.02-2.34-3.03 2.88-8.61 7.704-9.976 19.404-1.368 11.772-1.62 40.248 0.36 52.668 2.016 12.311 7.816 16.961 11.596 20.741 3.74 3.74 9.93 5.25 12.13-0.76 2.16-6.16 1.76-24.697 0.75-35.461-1-10.728-2.84-28.656-5.47-34.452s-6.87-11.844-9-9.216c-2.12 2.7-6.48 19.152-6.08 28.008 0.47 8.856 4.89 30.456 7.45 33.876 2.59 3.315 8.42-5.436 9-10.764 0.54-5.4-4.32-21.816-5.65-21.168-1.37 0.828 3.02 14.688 2.12 20.196-0.86 5.472-3.31 9-4.89 5.076-1.55-3.924-2.42-15.732-2.52-21.528-0.11-5.796 1.26-10.908 2.34-12.744 1.08-1.8 2.23-1.692 4.1 1.944 1.91 3.672 5.94 11.736 7.06 19.8 1.08 8.064-1.55 17.172-2.74 23.513-1.22 6.22-4 7.02-7.06 5.25-3.09-1.8-5.5-3.2-8.02-11.519-2.49-8.352-2.38-17.136-2.56-27.432-0.14-10.332 0.29-21.06 2.16-28.008 1.87-6.876 5.58-10.944 8.42-10.584 2.81 0.432 4.07 2.88 6.48 11.196 2.38 8.352 4.83 16.92 6.63 33.876v-13.716z"/>
    <path id="path155" style="fill-rule:evenodd;stroke:#000000;stroke-miterlimit:10;stroke-width:.036;fill:#ffffff" d="m158.49 12.735c2.08-0.72 3.92 0.252 5.5 2.916 1.48 2.664 2.77 7.2 3.89 12.924 1.12 5.616 1.84 12.348 2.56 20.592-0.36-0.144-0.61 0.18-1.15 0.972-0.44 0.792-1.15 1.98-1.77 3.708 0-4.68-0.57-9.792-1.58-15.48-1.19-5.904-3.35-14.184-4.68-18.576-1.33-4.32-2.13-6.624-2.77-7.056z"/>
    <path id="path157" style="fill-rule:evenodd;stroke:#000000;stroke-miterlimit:10;stroke-width:.036;fill:#ffffff" d="m169.29 66.591c0.89 0.432 4.39-3.672 5.47-5.904 0.86-2.268 0.9-5.832 0.39-7.236-0.54-1.512-2.48-2.016-3.35-1.368-0.97 0.612-1.83 2.592-2.16 5.112-0.5 2.448-1.22 8.676-0.35 9.396z"/>
    <path id="path159" style="fill-rule:evenodd;stroke:#000000;stroke-miterlimit:10;stroke-width:.036;fill:#ffffff" d="m167.13 59.535c-0.51-1.368-2.53-4.104-3.53-3.348-0.94 0.756-2.38 6.516-1.98 7.848 0.25 1.26 2.99 0.252 3.92-0.396 0.83-0.864 1.91-2.88 1.59-4.104z"/>
    <path id="path161" style="fill-rule:evenodd;stroke:#000000;stroke-miterlimit:10;stroke-width:.036;fill:#ffffff" d="m160.65 48.555c0.54 1.188-0.4 3.456-1.55 3.348-1.23-0.216-5.01-3.132-5.51-4.32-0.65-1.404 0.76-3.24 1.98-3.132 1.3 0.216 4.28 2.7 5.08 4.104z"/>
    <path id="path163" style="fill-rule:evenodd;stroke:#000000;stroke-miterlimit:10;stroke-width:.036;fill:#ffffff" d="m175.15 67.347c0.61-1.188 4.43-4.5 5.48-4.104 0.89 0.396 0.68 5.076 0.18 6.264-0.65 1.08-2.81 0.504-3.71 0.216-1.05-0.504-2.52-1.296-1.95-2.376z"/>
    <path id="path165" style="fill-rule:evenodd;stroke:#000000;stroke-miterlimit:10;stroke-width:.036;fill:#ffffff" d="m168.1 72.243c0.25 3.708 0.21 8.1 0.18 13.32-0.18 5.148-0.11 12.132-0.76 17.637-0.72 5.37-1.83 10.37-3.35 14.87 0.33 1.15 0.83 1.59 1.37 1.59 0.4 0.03 0.94 0.72 1.77-1.98 0.86-3.1 2.23-9.76 3.13-15.27 0.76-5.471 1.26-11.591 1.37-16.847 0-5.328-0.83-11.952-1.37-14.472-0.76-2.556-2.16-0.864-2.56-0.612-0.43 0.18-0.36 0.72 0.22 1.764z"/>
    <path id="path167" style="fill-rule:evenodd;stroke:#000000;stroke-miterlimit:10;stroke-width:.036;fill:#ffffff" d="m226.06 44.631c0.54-3.348 0.36-6.876-0.4-11.16-0.94-4.392-2.81-10.332-4.5-14.076-1.76-3.78-4.14-6.552-5.87-8.028-1.76-1.512-3.38-1.62-4.71-0.612 2.01 2.844 3.85 6.372 5.51 10.584 1.69 4.176 3.31 10.584 4.28 14.508 0.83 3.852-0.25 6.84 0.79 8.424 0.97 1.404 2.56 1.62 4.9 0.36z"/>
    <path id="path169" style="fill-rule:evenodd;stroke:#000000;stroke-miterlimit:10;stroke-width:.036;fill:#ffffff" d="m220.19 49.347c-2.2 1.476-3.31 3.024-3.74 4.5-0.44 1.512 0.07 2.808 1.36 4.32 1.8-1.296 2.92-2.664 3.35-4.104 0.36-1.548 0.04-2.988-0.97-4.716z"/>
    <path id="path171" style="fill-rule:evenodd;stroke:#000000;stroke-miterlimit:10;stroke-width:.036;fill:#ffffff" d="m221.16 60.507c0-1.188 0.51-2.376 1.37-4.104 0.83-1.692 2.02-3.6 3.71-5.868 0.61 2.952 0.79 5.508 0.39 7.812-0.5 2.196-1.83 5.292-2.73 5.688-0.87 0.36-1.91-0.864-2.74-3.528z"/>
    <path id="path173" style="fill-rule:evenodd;stroke:#000000;stroke-miterlimit:10;stroke-width:.036;fill:#ffffff" d="m229.59 60.687c1.22-1.764 2.12-2.34 3.13-2.124 0.94 0.252 2.23 2.088 2.34 3.708-0.04 1.548-1.08 5.58-2.16 5.868-1.19 0.144-2.59-1.116-4.5-4.32 0.39-1.044 0.79-2.088 1.19-3.132z"/>
    <path id="path175" style="fill-rule:evenodd;stroke:#000000;stroke-miterlimit:10;stroke-width:.036;fill:#ffffff" d="m217.24 44.271c-1.59-1.656-2.77-2.628-3.71-2.772-1.04-0.18-2.31 0.396-1.98 1.584 0.32 1.08 1.58 2.664 3.92 4.896 0.58-1.224 1.16-2.448 1.77-3.708z"/>
    <path id="path177" style="fill-rule:evenodd;stroke:#000000;stroke-miterlimit:10;stroke-width:.036;fill:#ffffff" d="m223.32 88.695c-0.22 4.464-0.72 9.864-1.37 14.115-0.93 4.28-2.95 8.49-3.52 10.98-0.54 2.34-0.36 3.31 0.39 2.91 0.72-0.54 2.34-2.55 3.89-6.05 1.33-3.6 3.81-9.68 4.54-15.476 0.72-5.904 0.14-15.444-0.22-19.584-0.47-4.212-1.8-5.616-2.34-5.472-0.65 0-1.05 2.7-1.19 5.868-0.25 3.097-0.03 8.173-0.18 12.709z"/>
    <path id="path179" style="stroke:#000000;stroke-width:.036;stroke-miterlimit:10;fill-rule:evenodd" d="m96.998 137.19c0.432-2.95 1.548-5.76 3.352-8.03 1.69-2.41 2.95-4.72 7.23-6.08 4.21-1.44 12.6-1.41 18.22-1.98 5.54-0.65 11.19-1.59 14.87-1.55 3.52 0 5.68 0.36 6.47 1.37h10.98c0.98-1.05 4.22-1.7 9.58-1.95 5.44-0.32 16.85-0.07 22.72 0.18 5.68 0.07 8.35 0.47 11.73 0.79 3.31 0.36 6.12 0.65 8.43 1.16 2.41 0.39 4.53 0.5 6.66 0.61 2.08-0.04 3.88-0.07 5.68-0.4 0.08-0.68 1.23-0.61 5.48-0.57 4.32 0 14.29 0.5 19.01 1.15 4.64 0.68 5.58-0.79 8.81 2.73 3.21 3.6 8.21 12.28 10.37 18.44 2.13 6.08 2.92 11.12 2.34 18-0.61 6.91-2.98 17.56-5.87 22.93-2.91 5.25-5.72 7.13-11.34 8.6-5.72 1.41-10.18 0.97-16.27 0.58-6.08-0.4-8.02-2.16-8.02-2.16l-7.64-0.4s-1.08 1.48-10.58 1.77c-9.5 0.32-11.52-0.62-27.4-0.58 0 0-7.02 0.65-11.15 0.4-4.18-0.26-5.12-1.77-5.12-1.77h-5.07s-1.62 1.19-8.03 1.77c-6.41 0.57-6.19 0-17.64 0.57-11.34 0.61-15.26 3.53-20.74 2.56-5.47-1.01-8.56-3.89-11.77-8.43-3.167-4.53-6.335-10.26-7.235-18.61-0.865-8.35-0.253-18.57 1.943-31.1z"/>
    <path id="path181" style="fill-rule:evenodd;stroke:#000000;stroke-miterlimit:10;stroke-width:.036;fill:#ffffff" d="m120.72 124.05c4.11-0.69 7.92-1.33 11.74-1.55 3.78-0.36 8.06-0.61 10.76-0.22 2.52 0.4 4.14 1.05 4.72 2.34 0.9 1.01 2.27 2.52 4.1 4.54 1.84 1.91 4.75 4.1 6.66 7.42 1.77 3.27 3.13 7.27 4.11 12.13-1.3-0.36-2.2 0.18-2.56 1.76-0.43 1.55 0.11 5.01 0.22 7.45-0.11 2.38-0.51 4.79-0.22 6.66 0.18 1.77 0.9 2.96 1.76 3.71 0.44 1.37 0.26 3.67-0.39 7.06-0.76 3.35-1.95 10.69-3.71 13.14-1.87 2.3-3.28 0.83-6.84 0.97-3.67 0.07-10.08-0.5-14.51-0.22-4.5 0.18-8.35 0.76-11.95 1.59 2.2-6.55 3.46-13.75 3.92-22.14 0.4-8.46-0.1-20.27-1.36-27.79-1.3-7.49-3.5-13.11-6.45-16.85z"/>
    <path id="path183" style="fill-rule:evenodd;stroke:#000000;stroke-miterlimit:10;stroke-width:.036;fill:#ffffff" d="m163.38 123.08c4.61-0.65 9.58-1.16 15.3-1.37 5.69-0.43 12.42-0.83 18.4-0.22 5.9 0.65 11.16 1.91 16.45 3.93 2.77 1.69 4.68 3.67 6.26 6.08 1.44 2.45 2.02 5 2.56 8.21 0.43 2.99 0.76 6.37 0.58 10.01-1.19 0-2.02 0.36-2.34 1.36-0.4 0.87 0.21 2.02 0.18 4.29-0.18 2.19-1.05 6.84-0.8 9.21 0.22 2.38 0.94 3.82 2.16 4.72 0.15 2.05-0.18 4.68-0.97 8.03-0.83 3.24-2.09 7.2-3.92 11.73-1.66 0.36-4.79 0.72-9.4 0.8-4.79-0.04-12.81-0.11-18.39-0.22-5.62-0.14-10.88-0.07-14.51-0.18-3.57-0.11-6.02-0.18-7.06-0.22-0.07-0.14 0-0.61 0.22-1.54 0.18-0.94 0.39-2.2 0.79-3.93l3.53 1.59 6.84-5.91c-1.84-1.83-3.28-3.45-4.32-5.25-1.05-1.8-1.69-3.57-1.95-5.3 1.44 0.26 2.16-0.64 2.56-2.55 0.22-2.13-0.36-6.45-0.61-9.22-0.29-2.81-0.36-5.87-0.76-7.23-0.5-1.37-1.11-1.7-1.98-0.98 0.07-3.27-0.25-6.44-0.97-9.79-0.86-3.45-2.38-7.45-3.71-10.19-1.33-2.73-2.66-4.64-4.14-5.86z"/>
    <path id="path185" style="fill-rule:evenodd;stroke:#000000;stroke-miterlimit:10;stroke-width:.036;fill:#ffffff" d="m225.48 124.26c-0.9-1.04 0.97-1.51 5.47-1.4 4.5 0.07 11.63 0.61 21.53 1.76 2.77 2.09 5.15 5.44 7.27 10.19 2.05 4.75 4.5 11.7 5.26 18.22 0.61 6.44 0.25 14.18-1.37 20.16-1.76 5.97-4.82 11.73-8.6 14.9-3.93 2.85-9.65 2.56-14.12 2.74-4.46 0.21-8.64-0.36-12.52-1.59l1.18-5.65c0.08 0.54 0.4 1.05 0.98 1.37 0.5 0.32 1.33 0.47 2.34 0.58l7.05-7.24c-1.65-1.51-2.91-2.7-3.92-4.1-1.01-1.37-1.77-2.63-2.12-3.93 0.5 0.18 1-0.43 1.36-1.98 0.4-1.69 0.9-4.25 0.98-7.23-0.11-3.06-0.76-8.28-1.37-10.37-0.65-2.2-1.55-2.88-2.56-2.34 0.72-4.43 0.58-8.57-0.57-12.57-1.26-4.06-3.17-7.81-6.27-11.52z"/>
    <path id="path187" style="fill-rule:evenodd;stroke:#000000;stroke-miterlimit:10;stroke-width:.036;fill:#ffffff" d="m150.67 123.87l9.18-0.4c1.95 1.8 3.39 4 4.72 6.45 1.05 2.44 2.09 5.47 2.74 8.24 0.68 2.7 1.36 5.11 1.76 7.63l-4.32 0.4c-0.36-3.93-1.48-7.67-3.89-11.38-2.37-3.78-5.72-7.38-10.19-10.94z"/>
    <path id="path189" style="fill-rule:evenodd;stroke:#000000;stroke-miterlimit:10;stroke-width:.036;fill:#ffffff" d="m165.36 152.06c1.19-0.33 4.57-0.54 5.69 0.18 0.94 0.64 0.43 1.83 0.58 4.14 0.07 2.3 1.22 7.66 0.39 9.57-0.93 1.77-3.99 1.05-5.29 1.19-1.37 0.04-2.23 0.47-2.73-0.79-0.54-1.44-0.65-4.9-0.62-7.06-0.1-2.3 0.08-4.39 0.4-5.69 0.18-1.22 0.43-1.36 1.58-1.54z"/>
    <path id="path191" style="fill-rule:evenodd;stroke:#000000;stroke-miterlimit:10;stroke-width:.036;fill:#ffffff" d="m165.54 170.45l5.69-0.57c-0.11 1.4 0.29 2.84 1.19 4.32 0.86 1.47 2.23 2.77 4.1 4.28l-4.1 5.11c-2.74-1.91-4.61-3.49-5.91-4.89-1.29-1.41-1.69-2.06-1.76-3.35-0.25-1.44 0.14-3.03 0.79-4.9z"/>
    <path id="path193" style="fill-rule:evenodd;stroke:#000000;stroke-miterlimit:10;stroke-width:.036;fill:#ffffff" d="m163.38 179.27c-0.5 1.44-0.79 2.81-1.15 4.5-0.29 1.55-0.65 3.24-0.79 5.08l4.1 0.39 1.37-6.26c-0.32-0.36-0.83-0.72-1.37-1.37-0.65-0.68-1.37-1.37-2.16-2.34z"/>
    <path id="path195" style="fill-rule:evenodd;stroke:#000000;stroke-miterlimit:10;stroke-width:.036;fill:#ffffff" d="m224.87 170.45l5.69-0.57c-0.11 1.4 0.29 2.84 1.19 4.32 0.86 1.47 2.23 2.77 4.1 4.28l-4.1 5.11c-2.67-1.91-4.58-3.49-5.87-4.89-1.37-1.41-1.59-2.06-1.77-3.35-0.21-1.44 0.04-3.03 0.76-4.9z"/>
    <path id="path197" style="fill-rule:evenodd;stroke:#000000;stroke-miterlimit:10;stroke-width:.036;fill:#ffffff" d="m223.1 179.85c-0.5 1.44-0.79 2.81-1.15 4.5-0.28 1.62-0.64 3.27-0.79 5.11l4.11 0.4 1.36-6.27c-0.32-0.36-0.82-0.72-1.36-1.37-0.65-0.64-1.37-1.44-2.17-2.37z"/>
    <path id="path199" style="fill-rule:evenodd;stroke:#000000;stroke-miterlimit:10;stroke-width:.036;fill:#ffffff" d="m225.66 151.48c1.19-0.32 4.57-0.54 5.69 0.18 0.94 0.68 0.43 1.73 0.58 4.1 0.07 2.27 1.22 7.74 0.39 9.62-0.94 1.83-3.99 0.97-5.29 1.15-1.37 0.03-2.23 0.43-2.74-0.76-0.54-1.44-0.68-4.89-0.57-7.05-0.11-2.31 0.07-4.4 0.39-5.69 0.22-1.23 0.36-1.37 1.55-1.55z"/>
    <path id="path201" style="fill-rule:evenodd;stroke:#000000;stroke-miterlimit:10;stroke-width:.036;fill:#ffffff" d="m215.08 124.05l6.87 0.39c1.8 1.8 3.5 4 4.68 6.45 1.16 2.45 2.2 5.33 2.74 8.24 0.5 2.88 0.9 5.69 0.79 8.82l-5.07 0.18c0.28-4.53-0.33-8.64-1.98-12.71-1.73-4.06-4.36-7.81-8.03-11.37z"/>
    <path id="path203" style="fill-rule:evenodd;stroke:#000000;stroke-miterlimit:10;stroke-width:.036;fill:#ffffff" d="m125.62 151.66c-0.4-7.45-1.33-13.21-2.95-17.42-1.59-4.25-3.53-7.1-6.66-7.85-3.35-0.87-9.58-1.12-12.71 3.13-3.17 4.28-5.186 14.54-5.906 22.32-0.612 7.74 0.072 17.46 1.764 23.72 1.652 6.12 4.142 10.34 7.452 12.93 3.06 2.55 8.17 5.15 11.16 2.34 2.95-3.06 5.8-12.82 6.44-19.98 0.33-7.31-1.29-17.1-3.31-23.11-2.05-6.12-5.43-11.6-8.21-12.93-2.8-1.33-6.66-0.07-8.24 5.29-1.66 5.4-2.02 19.37-1.37 26.64 0.58 7.13 2.34 15.45 4.9 16.06 2.55 0.47 8.89-7.13 9.97-12.92 0.76-5.98-2.66-18.33-4.28-21.93-1.7-3.6-4.11-3.27-4.9 0.4-0.76 3.63-0.58 19.26 0.4 21.31 0.79 1.98 4.39-8.39 4.68-9.58 0.18-1.33-2.78 2.88-3.32 1.95-0.75-1.19-0.82-7.2-0.21-8.03 0.68-0.76 3.24 1.19 3.92 3.35 0.43 2.01 0.04 6.12-0.79 8.82-0.9 2.63-2.92 7.56-4.1 7.02-1.3-0.76-2.81-6.37-3.14-11.16-0.32-4.86 0.08-14.33 1.19-17.43 0.97-3.16 3.13-3.74 5.08-1.15 1.98 2.52 5.43 10.77 6.48 16.42 0.9 5.61 0.75 12.74-1.01 17.06-2.02 4.29-7.49 8.46-10.15 8.21-2.67-0.54-4.36-4.97-5.51-10.76-1.33-6.02-1.8-17.43-1.55-24.09 0.29-6.73 1.37-12.24 3.53-15.26 2.2-3.03 6.77-3.6 9.4-2.56 2.41 0.94 4.03 5.04 5.68 8.43 1.62 3.16 2.99 6.94 4.11 11.34 1.04 4.5 1.87 9.46 2.34 15.3-0.04-5.3-0.11-10.59-0.18-15.88z"/>
  </g>
  <metadata>
    <rdf:RDF>
      <cc:Work>
        <dc:format>image/svg+xml</dc:format>
        <dc:type rdf:resource="http://purl.org/dc/dcmitype/StillImage"/>
        <cc:license rdf:resource="http://creativecommons.org/licenses/publicdomain/"/>
        <dc:publisher>
          <cc:Agent rdf:about="http://openclipart.org/">
            <dc:title>Openclipart</dc:title>
          </cc:Agent>
        </dc:publisher>
        <dc:title>Backpacker</dc:title>
        <dc:date>2010-04-19T21:14:44</dc:date>
        <dc:description>Adapted from AbiClipart project. http://www.ibiblio.org/abiclipart</dc:description>
        <dc:source>https://openclipart.org/detail/48991/backpacker-by-gerald_g-48991</dc:source>
        <dc:creator>
          <cc:Agent>
            <dc:title>Gerald_G</dc:title>
          </cc:Agent>
        </dc:creator>
        <dc:subject>
          <rdf:Bag>
            <rdf:li>abiclipart</rdf:li>
            <rdf:li>backpack</rdf:li>
            <rdf:li>camping</rdf:li>
            <rdf:li>cartoon</rdf:li>
            <rdf:li>colouring book</rdf:li>
            <rdf:li>externalsource</rdf:li>
            <rdf:li>man</rdf:li>
            <rdf:li>outdoors</rdf:li>
            <rdf:li>people</rdf:li>
          </rdf:Bag>
        </dc:subject>
      </cc:Work>
      <cc:License rdf:about="http://creativecommons.org/licenses/publicdomain/">
        <cc:permits rdf:resource="http://creativecommons.org/ns#Reproduction"/>
        <cc:permits rdf:resource="http://creativecommons.org/ns#Distribution"/>
        <cc:permits rdf:resource="http://creativecommons.org/ns#DerivativeWorks"/>
      </cc:License>
    </rdf:RDF>
  </metadata>
</svg>
